<?xml version="1.0" encoding="UTF-8"?>
<!DOCTYPE svg PUBLIC "-//W3C//DTD SVG 1.1//EN" "http://www.w3.org/Graphics/SVG/1.1/DTD/svg11.dtd">
<svg xmlns="http://www.w3.org/2000/svg" version="1.1" width="2500px" height="2500px" style="shape-rendering:geometricPrecision; text-rendering:geometricPrecision; image-rendering:optimizeQuality; fill-rule:evenodd; clip-rule:evenodd" xmlns:xlink="http://www.w3.org/1999/xlink">
<g><path style="opacity:1" fill="#fbd107" d="M 1199.5,-0.5 C 1232.83,-0.5 1266.17,-0.5 1299.5,-0.5C 1550.81,11.6532 1778.48,90.4866 1982.5,236C 1992.24,243.52 2001.9,251.02 2011.5,258.5C 1920.11,257.44 1848.94,294.44 1798,369.5C 1753.82,445.474 1752.16,522.474 1793,600.5C 1835.5,670.365 1897.66,709.865 1979.5,719C 2071.03,723.475 2143.53,688.975 2197,615.5C 2223.28,574.811 2236.11,530.144 2235.5,481.5C 2346.63,623.451 2423.46,782.784 2466,959.5C 2484.55,1038.62 2495.72,1118.62 2499.5,1199.5C 2499.5,1232.83 2499.5,1266.17 2499.5,1299.5C 2484.25,1591.5 2382.42,1848.17 2194,2069.5C 1988.4,2301.66 1731.24,2441.16 1422.5,2488C 1381.5,2493.55 1340.5,2497.39 1299.5,2499.5C 1266.17,2499.5 1232.83,2499.5 1199.5,2499.5C 969.273,2488.7 757.606,2420.87 564.5,2296C 542.708,2281.36 521.375,2266.19 500.5,2250.5C 525.149,2133.23 573.982,2027.56 647,1933.5C 707.121,1858.37 775.955,1792.54 853.5,1736C 949.992,1666.89 1052.99,1608.22 1162.5,1560C 1286.02,1520.07 1402.35,1465.4 1511.5,1396C 1541.45,1376.52 1569.79,1354.85 1596.5,1331C 1618.86,1310.99 1637.03,1287.82 1651,1261.5C 1675.68,1204.47 1692.01,1145.14 1700,1083.5C 1713.51,972.106 1679.01,878.94 1596.5,804C 1510.81,759.052 1420.14,744.385 1324.5,760C 1257.6,771.515 1192.6,789.848 1129.5,815C 1065.97,845.865 1011.14,888.032 965,941.5C 916.467,1002.93 886.134,1072.6 874,1150.5C 870.487,1180.14 867.154,1209.81 864,1239.5C 838.047,1420.62 755.547,1569.79 616.5,1687C 534.855,1753.7 445.188,1808.03 347.5,1850C 295.298,1872.45 242.298,1892.62 188.5,1910.5C 72.6127,1723.49 9.61271,1519.82 -0.5,1299.5C -0.5,1266.17 -0.5,1232.83 -0.5,1199.5C 14.7487,907.501 116.582,650.834 305,429.5C 510.596,197.337 767.762,57.837 1076.5,11C 1117.5,5.44641 1158.5,1.61307 1199.5,-0.5 Z"/></g>
<g><path style="opacity:1" fill="#1f2527" d="M 2011.5,258.5 C 2096.15,322.816 2170.82,397.149 2235.5,481.5C 2236.11,530.144 2223.28,574.811 2197,615.5C 2143.53,688.975 2071.03,723.475 1979.5,719C 1897.66,709.865 1835.5,670.365 1793,600.5C 1752.16,522.474 1753.82,445.474 1798,369.5C 1848.94,294.44 1920.11,257.44 2011.5,258.5 Z"/></g>
<g><path style="opacity:1" fill="#1f2527" d="M 500.5,2250.5 C 388.843,2166.75 293.676,2067.42 215,1952.5C 205.895,1938.61 197.062,1924.61 188.5,1910.5C 242.298,1892.62 295.298,1872.45 347.5,1850C 445.188,1808.03 534.855,1753.7 616.5,1687C 755.547,1569.79 838.047,1420.62 864,1239.5C 867.154,1209.81 870.487,1180.14 874,1150.5C 886.134,1072.6 916.467,1002.93 965,941.5C 1011.14,888.032 1065.97,845.865 1129.5,815C 1192.6,789.848 1257.6,771.515 1324.5,760C 1420.14,744.385 1510.81,759.052 1596.5,804C 1679.01,878.94 1713.51,972.106 1700,1083.5C 1692.01,1145.14 1675.68,1204.47 1651,1261.5C 1637.03,1287.82 1618.86,1310.99 1596.5,1331C 1569.79,1354.85 1541.45,1376.52 1511.5,1396C 1402.35,1465.4 1286.02,1520.07 1162.5,1560C 1052.99,1608.22 949.992,1666.89 853.5,1736C 775.955,1792.54 707.121,1858.37 647,1933.5C 573.982,2027.56 525.149,2133.23 500.5,2250.5 Z"/></g>
</svg>
