<svg id="svg" version="1.1" xmlns="http://www.w3.org/2000/svg" xmlns:xlink="http://www.w3.org/1999/xlink" width="30" height="30" viewBox="0, 0, 400,400"><g id="svgg"><path id="path0" d="M0.025 90.700 C 0.041 147.414,0.191 181.050,0.425 180.466 C 0.631 179.953,0.974 177.973,1.189 176.066 C 1.850 170.191,4.664 156.050,6.656 148.600 C 21.536 92.948,60.665 45.486,112.400 20.338 C 129.191 12.175,146.118 6.648,164.965 3.172 C 167.366 2.729,169.455 2.289,169.608 2.195 C 169.761 2.100,172.086 1.737,174.774 1.387 C 177.462 1.037,180.053 0.594,180.531 0.401 C 181.032 0.199,143.015 0.040,90.700 0.025 L 0.000 0.000 0.025 90.700 M220.000 0.452 C 220.550 0.673,222.530 1.026,224.400 1.236 C 229.704 1.831,244.116 4.847,252.200 7.053 C 330.286 28.358,387.908 94.282,398.645 174.600 C 398.969 177.020,399.392 179.450,399.585 180.000 C 399.790 180.581,399.950 143.095,399.968 90.500 L 400.000 0.000 309.500 0.025 C 248.517 0.042,219.326 0.182,220.000 0.452 M290.537 77.769 C 266.824 82.258,257.959 108.486,274.567 125.016 C 294.727 145.082,328.924 127.893,323.376 100.483 C 320.409 85.825,304.846 75.060,290.537 77.769 M212.400 137.478 C 189.568 139.923,168.520 154.591,159.658 174.231 C 156.298 181.681,155.568 184.786,153.989 198.368 C 148.880 242.311,115.261 270.688,49.506 286.561 C 37.416 289.480,24.839 291.749,23.538 291.247 C 19.282 289.604,8.479 261.546,4.269 241.200 C 2.257 231.474,1.200 225.573,1.169 223.897 C 1.152 222.964,0.901 221.480,0.611 220.600 C 0.171 219.265,0.077 234.015,0.042 309.500 L 0.000 400.000 91.100 399.964 C 182.773 399.928,189.393 399.823,175.161 398.633 C 173.312 398.478,170.270 398.018,168.400 397.609 C 166.530 397.201,162.930 396.482,160.400 396.013 C 147.130 393.549,120.479 384.596,115.807 381.032 C 112.510 378.518,110.237 370.787,108.328 355.600 C 107.613 349.914,107.617 330.164,108.334 325.600 C 112.828 296.980,129.596 273.986,161.632 252.511 C 168.895 247.642,179.388 242.717,196.800 236.006 C 215.972 228.616,220.913 226.568,227.800 223.156 C 250.727 211.798,259.307 198.287,258.693 174.505 C 258.470 165.890,257.785 162.408,255.257 157.043 C 248.766 143.265,231.587 135.423,212.400 137.478 M399.254 221.300 C 399.033 222.455,398.738 224.480,398.598 225.800 C 397.759 233.721,392.518 255.549,389.185 265.000 C 365.550 332.029,310.045 381.143,241.600 395.592 C 238.410 396.265,234.180 397.164,232.200 397.590 C 230.220 398.015,226.944 398.554,224.919 398.787 C 222.894 399.021,220.824 399.378,220.319 399.581 C 219.754 399.807,254.172 399.959,309.700 399.975 L 400.000 400.000 400.000 309.600 C 400.000 259.880,399.923 219.200,399.828 219.200 C 399.734 219.200,399.476 220.145,399.254 221.300 " stroke="none" fill="#fcfbfb" fill-rule="evenodd"></path><path id="path1" d="M179.600 0.620 C 178.610 0.904,177.170 1.156,176.400 1.182 C 175.044 1.226,173.736 1.451,164.800 3.169 C 155.746 4.911,152.470 5.673,145.823 7.582 C 85.921 24.790,38.630 67.075,14.670 124.850 C 8.515 139.693,2.865 161.161,1.187 176.079 C 0.972 177.992,0.617 180.029,0.398 180.605 C -0.298 182.437,-0.114 218.196,0.604 220.564 C 0.932 221.644,1.200 223.217,1.200 224.060 C 1.200 225.575,2.254 231.461,4.269 241.200 C 8.479 261.546,19.282 289.604,23.538 291.247 C 24.839 291.749,37.416 289.480,49.506 286.561 C 115.261 270.688,148.880 242.311,153.989 198.368 C 155.568 184.786,156.298 181.681,159.658 174.231 C 179.201 130.916,247.407 123.545,257.642 163.643 C 258.870 168.455,259.168 180.319,258.206 186.105 C 255.327 203.416,246.887 213.701,227.800 223.156 C 220.913 226.568,215.972 228.616,196.800 236.006 C 179.388 242.717,168.895 247.642,161.632 252.511 C 129.596 273.986,112.828 296.980,108.334 325.600 C 107.617 330.164,107.613 349.914,108.328 355.600 C 110.237 370.787,112.510 378.518,115.807 381.032 C 120.479 384.596,147.130 393.549,160.400 396.013 C 162.930 396.482,166.530 397.199,168.400 397.605 C 170.270 398.012,173.240 398.463,175.000 398.608 C 176.760 398.754,179.216 399.126,180.458 399.436 C 183.190 400.119,218.437 400.270,220.181 399.607 C 220.749 399.391,222.875 399.023,224.907 398.789 C 226.938 398.555,230.220 398.015,232.200 397.590 C 234.180 397.164,238.410 396.265,241.600 395.592 C 324.251 378.144,388.962 307.708,398.779 224.507 C 399.019 222.475,399.391 220.349,399.607 219.781 C 400.127 218.414,400.134 181.722,399.615 180.160 C 399.403 179.522,398.966 177.020,398.643 174.600 C 387.948 94.334,330.281 28.356,252.200 7.053 C 244.101 4.843,229.692 1.829,224.400 1.238 C 222.530 1.029,220.493 0.665,219.874 0.429 C 218.153 -0.227,181.956 -0.055,179.600 0.620 M301.352 78.216 C 318.920 81.813,329.023 101.940,321.224 117.800 C 312.442 135.658,288.915 139.297,274.567 125.016 C 254.373 104.916,272.979 72.406,301.352 78.216 " stroke="none" fill="#f4bc14" fill-rule="evenodd"></path></g></svg>