<svg id="svg" version="1.1" xmlns="http://www.w3.org/2000/svg" xmlns:xlink="http://www.w3.org/1999/xlink" width="40" height="400" viewBox="0, 0, 400,400"><g id="svgg"><path id="path0" d="M286.033 14.549 C 286.445 14.917,288.800 16.000,288.800 15.821 C 288.800 15.590,286.582 14.400,286.153 14.400 C 285.996 14.400,285.942 14.467,286.033 14.549 M295.513 19.335 C 296.014 19.614,296.290 19.977,296.125 20.142 C 295.960 20.307,296.155 20.315,296.559 20.160 C 297.312 19.872,296.091 18.828,295.000 18.828 C 294.780 18.828,295.011 19.056,295.513 19.335 M306.302 25.466 C 306.579 25.577,306.722 25.803,306.620 25.967 C 306.518 26.132,306.697 26.267,307.018 26.267 C 307.338 26.267,307.600 26.136,307.600 25.976 C 307.600 25.681,306.556 25.174,306.067 25.232 C 305.920 25.249,306.026 25.354,306.302 25.466 M311.773 29.279 C 311.607 29.565,311.619 29.667,311.799 29.503 C 311.979 29.340,312.397 29.430,312.728 29.703 C 313.218 30.108,313.295 30.093,313.140 29.625 C 312.879 28.836,312.137 28.648,311.773 29.279 M316.000 31.791 C 316.000 32.126,316.270 32.400,316.600 32.400 C 316.930 32.400,317.200 32.580,317.200 32.800 C 317.200 33.020,317.380 33.200,317.600 33.200 C 318.324 33.200,318.018 32.504,317.000 31.837 C 316.125 31.263,316.000 31.257,316.000 31.791 M318.259 33.390 C 318.122 33.748,318.172 33.941,318.370 33.818 C 318.569 33.695,318.812 33.821,318.911 34.098 C 319.010 34.374,319.239 34.461,319.421 34.290 C 319.603 34.120,319.473 33.701,319.131 33.359 C 318.569 32.797,318.485 32.800,318.259 33.390 M323.200 37.019 C 323.200 37.468,323.411 37.605,323.845 37.438 C 324.287 37.268,324.422 37.365,324.276 37.746 C 324.150 38.075,324.457 38.480,325.032 38.742 C 326.247 39.295,326.281 38.793,325.100 37.729 C 323.688 36.458,323.200 36.276,323.200 37.019 M326.646 39.375 C 326.863 39.942,326.804 40.049,326.406 39.804 C 326.043 39.580,325.972 39.630,326.178 39.965 C 326.344 40.233,326.582 40.351,326.708 40.226 C 326.833 40.101,327.265 40.297,327.668 40.661 C 328.806 41.691,328.530 40.661,327.378 39.579 C 326.531 38.784,326.405 38.749,326.646 39.375 M330.659 42.990 C 330.522 43.348,330.572 43.541,330.770 43.418 C 330.969 43.295,331.212 43.421,331.311 43.698 C 331.410 43.974,331.639 44.061,331.821 43.890 C 332.003 43.720,331.873 43.301,331.531 42.959 C 330.969 42.397,330.885 42.400,330.659 42.990 M332.656 44.598 C 332.529 44.928,332.764 45.262,333.226 45.408 C 333.658 45.545,333.923 45.801,333.815 45.976 C 333.707 46.151,334.003 46.273,334.474 46.247 C 334.944 46.221,335.413 46.450,335.516 46.756 C 335.641 47.126,335.533 47.206,335.190 46.994 C 334.843 46.780,334.774 46.835,334.978 47.165 C 335.144 47.433,335.376 47.557,335.493 47.440 C 335.610 47.323,336.042 47.654,336.453 48.177 C 337.297 49.250,337.426 49.787,336.738 49.362 C 336.450 49.184,336.385 49.252,336.566 49.545 C 336.725 49.802,337.019 49.912,337.219 49.788 C 337.777 49.443,339.259 50.381,338.949 50.882 C 338.785 51.148,338.860 51.210,339.138 51.038 C 339.392 50.881,339.600 50.660,339.600 50.547 C 339.600 50.050,335.060 45.639,334.748 45.832 C 334.556 45.951,334.400 45.810,334.400 45.520 C 334.400 44.682,332.923 43.902,332.656 44.598 M349.339 60.732 C 349.703 61.135,349.866 61.600,349.701 61.766 C 349.535 61.931,349.670 62.007,350.000 61.933 C 350.330 61.860,350.593 61.980,350.585 62.200 C 350.576 62.420,351.277 63.320,352.143 64.200 C 353.008 65.080,353.575 65.552,353.402 65.248 C 353.188 64.871,353.265 64.758,353.644 64.892 C 354.001 65.017,354.163 65.572,354.098 66.444 C 354.021 67.454,354.096 67.647,354.391 67.200 C 354.758 66.645,354.982 66.924,354.831 67.749 C 354.796 67.941,355.022 68.000,355.334 67.881 C 355.677 67.749,356.074 68.045,356.342 68.632 C 356.584 69.164,356.947 69.600,357.148 69.600 C 357.349 69.600,357.633 70.076,357.779 70.658 C 357.973 71.431,358.163 71.597,358.487 71.273 C 359.231 70.529,350.392 60.000,349.024 60.000 C 348.833 60.000,348.974 60.330,349.339 60.732 M359.055 72.200 C 359.182 72.530,359.466 72.800,359.686 72.800 C 359.906 72.800,359.988 73.055,359.868 73.367 C 359.748 73.679,359.918 74.037,360.246 74.162 C 360.582 74.291,360.735 74.219,360.597 73.995 C 360.463 73.778,360.513 73.600,360.710 73.600 C 361.383 73.600,361.553 74.087,361.121 74.779 C 360.805 75.284,360.820 75.678,361.174 76.236 C 361.644 76.974,361.652 76.974,361.421 76.243 C 361.218 75.603,361.275 75.565,361.791 75.992 C 362.241 76.366,362.400 76.374,362.400 76.025 C 362.400 75.758,362.617 75.680,362.900 75.845 C 363.445 76.164,362.507 74.945,360.634 72.900 C 359.368 71.518,358.676 71.211,359.055 72.200 M289.932 76.809 C 265.757 80.889,256.860 108.427,274.388 124.916 C 291.403 140.922,319.563 131.464,322.864 108.635 C 325.465 90.643,307.996 73.761,289.932 76.809 M362.500 76.665 C 361.966 76.880,361.797 77.632,362.300 77.553 C 363.133 77.421,363.600 77.662,363.600 78.224 C 363.600 78.598,363.787 78.732,364.068 78.558 C 364.383 78.364,364.452 78.487,364.281 78.934 C 364.114 79.369,364.229 79.600,364.613 79.600 C 365.371 79.600,365.359 79.515,364.360 77.823 C 363.509 76.380,363.390 76.306,362.500 76.665 M365.165 80.030 C 364.828 80.244,364.786 80.390,365.063 80.394 C 365.318 80.397,365.437 80.738,365.328 81.155 C 365.219 81.570,365.354 82.048,365.627 82.217 C 365.970 82.429,366.022 82.360,365.796 81.994 C 365.560 81.611,365.650 81.534,366.122 81.715 C 367.080 82.082,367.226 81.520,366.428 80.534 C 365.944 79.936,365.557 79.782,365.165 80.030 M366.600 82.400 C 366.234 82.992,366.796 83.687,367.440 83.440 C 368.135 83.173,368.166 83.661,367.500 84.379 C 367.207 84.695,367.188 84.812,367.455 84.663 C 367.705 84.523,368.155 84.711,368.455 85.081 C 368.830 85.544,368.844 85.660,368.500 85.453 C 368.213 85.281,368.000 85.353,368.000 85.623 C 368.000 85.901,368.337 86.005,368.823 85.878 C 369.351 85.740,369.584 85.831,369.473 86.131 C 369.378 86.389,369.067 86.545,368.782 86.477 C 368.367 86.379,368.363 86.474,368.762 86.954 C 369.043 87.292,369.550 87.443,369.929 87.301 C 370.487 87.092,370.517 87.153,370.106 87.658 C 369.706 88.151,369.725 88.267,370.206 88.267 C 370.533 88.267,370.800 88.106,370.800 87.910 C 370.800 87.713,370.983 87.666,371.208 87.805 C 371.432 87.943,370.757 86.704,369.708 85.050 C 367.878 82.166,367.136 81.533,366.600 82.400 M370.781 89.023 C 370.354 89.537,370.363 89.624,370.832 89.523 C 371.145 89.455,371.355 89.625,371.300 89.900 C 371.197 90.416,372.073 90.594,372.519 90.147 C 372.829 89.838,372.102 88.400,371.635 88.400 C 371.450 88.400,371.065 88.680,370.781 89.023 M372.267 90.667 C 371.597 91.336,371.996 92.009,372.774 91.523 C 373.200 91.257,373.459 90.896,373.351 90.720 C 373.110 90.330,372.627 90.307,372.267 90.667 M372.826 92.169 C 372.139 92.996,372.700 93.712,373.861 93.490 C 374.804 93.310,374.810 93.326,374.114 94.121 C 373.721 94.570,373.625 94.806,373.900 94.645 C 374.237 94.448,374.400 94.638,374.400 95.225 C 374.400 95.956,374.498 96.017,375.000 95.600 C 375.723 95.000,375.807 95.629,375.100 96.349 C 374.825 96.628,374.780 96.823,375.000 96.781 C 375.869 96.616,376.169 96.833,375.600 97.215 C 375.145 97.520,375.263 97.574,376.091 97.437 C 377.151 97.261,377.164 97.283,376.569 98.191 C 376.154 98.824,376.095 99.211,376.385 99.391 C 376.620 99.536,376.698 99.842,376.557 100.069 C 376.417 100.297,376.770 100.176,377.343 99.801 C 378.484 99.053,378.415 98.701,376.643 96.218 C 376.179 95.568,375.432 94.320,374.982 93.445 C 374.048 91.628,373.529 91.321,372.826 92.169 M377.609 100.384 C 377.111 101.313,377.416 102.161,378.096 101.741 C 378.372 101.570,378.448 101.698,378.299 102.086 C 378.169 102.425,378.264 102.904,378.511 103.151 C 378.758 103.398,378.839 103.600,378.691 103.600 C 378.325 103.600,380.174 107.031,380.968 107.826 C 381.320 108.177,381.505 108.630,381.380 108.832 C 381.255 109.035,381.315 109.200,381.512 109.200 C 381.710 109.200,382.077 109.650,382.327 110.200 C 382.630 110.865,382.644 111.200,382.368 111.200 C 382.140 111.200,382.066 111.383,382.204 111.607 C 382.342 111.830,382.651 111.892,382.889 111.745 C 383.145 111.587,383.209 111.662,383.045 111.926 C 382.892 112.174,383.037 112.899,383.368 113.538 C 383.698 114.176,383.855 114.811,383.717 114.949 C 383.579 115.087,383.687 115.200,383.957 115.200 C 384.227 115.200,384.350 115.357,384.231 115.550 C 384.112 115.742,384.443 116.361,384.966 116.925 C 385.488 117.489,385.830 118.036,385.726 118.141 C 385.621 118.246,385.768 118.752,386.053 119.266 C 386.338 119.780,386.578 120.500,386.586 120.867 C 386.594 121.233,386.735 121.668,386.900 121.833 C 387.065 121.998,387.200 122.463,387.200 122.867 C 387.200 123.270,387.341 123.600,387.513 123.600 C 387.685 123.600,387.863 124.050,387.908 124.600 C 387.954 125.150,387.851 125.600,387.681 125.600 C 387.510 125.600,387.343 125.960,387.310 126.400 C 387.277 126.840,387.419 127.200,387.625 127.200 C 387.831 127.200,387.979 127.065,387.953 126.900 C 387.838 126.174,388.030 125.600,388.387 125.600 C 388.601 125.600,388.671 125.870,388.545 126.200 C 388.410 126.551,388.540 126.803,388.857 126.806 C 389.276 126.811,389.263 126.901,388.800 127.200 C 388.291 127.529,388.310 127.589,388.924 127.594 C 389.373 127.598,389.538 127.777,389.358 128.068 C 389.159 128.390,389.294 128.450,389.791 128.259 C 390.340 128.048,390.416 128.104,390.108 128.491 C 389.885 128.771,389.760 129.357,389.830 129.793 C 389.899 130.229,389.664 130.908,389.308 131.302 C 388.820 131.841,388.773 132.133,389.117 132.477 C 389.462 132.822,389.672 132.695,389.962 131.968 C 390.305 131.110,390.523 131.481,390.366 132.655 C 390.347 132.796,390.559 133.051,390.836 133.222 C 391.114 133.394,391.400 133.920,391.472 134.391 C 391.544 134.863,391.442 135.150,391.246 135.028 C 390.840 134.777,390.421 136.991,390.771 137.544 C 390.897 137.744,391.360 137.976,391.800 138.059 C 392.240 138.143,392.600 138.440,392.600 138.720 C 392.600 139.000,392.870 139.400,393.200 139.608 C 393.530 139.817,393.597 139.991,393.349 139.994 C 392.719 140.002,392.025 142.944,392.466 143.732 C 392.661 144.081,393.065 144.273,393.363 144.159 C 394.257 143.816,394.898 146.241,394.255 147.536 C 393.385 149.289,394.713 151.729,396.100 150.926 C 396.265 150.831,396.400 151.135,396.400 151.603 C 396.400 152.070,396.582 152.793,396.805 153.210 C 397.126 153.810,397.044 154.056,396.405 154.397 C 395.268 155.006,395.283 157.951,396.430 159.256 C 396.887 159.775,397.147 159.975,397.007 159.700 C 396.867 159.425,396.929 159.200,397.145 159.200 C 398.024 159.200,398.524 162.000,397.790 162.811 C 396.580 164.148,397.129 168.133,398.725 169.590 L 399.997 170.752 399.982 162.583 C 399.968 154.860,399.372 150.721,398.358 151.302 C 398.264 151.356,398.325 151.229,398.493 151.020 C 399.011 150.379,398.837 148.838,398.026 146.874 C 397.600 145.843,397.060 144.046,396.826 142.880 C 396.311 140.318,395.317 138.280,394.753 138.629 C 394.527 138.769,394.579 138.481,394.870 137.990 C 395.272 137.312,395.284 137.053,394.922 136.922 C 394.660 136.826,394.532 136.521,394.639 136.243 C 394.909 135.539,394.118 133.600,393.561 133.600 C 393.247 133.600,393.274 133.822,393.644 134.300 C 394.159 134.965,394.145 134.965,393.361 134.299 C 392.907 133.914,392.415 133.689,392.268 133.799 C 392.120 133.910,392.105 133.865,392.233 133.700 C 392.362 133.535,392.674 133.400,392.928 133.400 C 393.182 133.400,393.454 133.064,393.533 132.653 C 393.632 132.137,393.522 132.001,393.177 132.214 C 392.844 132.420,392.777 132.361,392.977 132.038 C 393.312 131.495,392.493 129.200,391.964 129.200 C 391.778 129.200,391.741 128.899,391.882 128.531 C 392.085 128.001,391.981 127.922,391.382 128.152 C 390.965 128.312,390.752 128.314,390.909 128.158 C 391.065 128.002,391.006 127.648,390.777 127.372 C 390.485 127.021,390.505 126.783,390.842 126.574 C 391.137 126.392,391.219 126.445,391.055 126.711 C 390.908 126.949,390.970 127.258,391.193 127.396 C 391.767 127.751,391.698 127.010,391.002 125.344 C 390.560 124.285,390.233 123.979,389.746 124.166 C 389.203 124.374,389.173 124.314,389.576 123.828 C 390.147 123.141,389.749 121.460,389.109 121.856 C 388.861 122.009,388.791 121.938,388.945 121.689 C 389.219 121.246,388.046 118.309,387.498 118.066 C 387.331 117.992,387.289 117.779,387.404 117.593 C 387.792 116.966,386.279 114.361,385.664 114.597 C 385.202 114.774,385.182 114.703,385.566 114.241 C 386.178 113.504,385.284 111.882,384.444 112.204 C 384.006 112.373,383.987 112.298,384.355 111.854 C 384.884 111.217,384.161 109.054,383.546 109.433 C 383.361 109.548,383.316 109.364,383.446 109.024 C 383.585 108.661,383.420 108.306,383.044 108.161 C 382.692 108.027,382.501 107.759,382.620 107.568 C 382.910 107.098,381.099 103.975,380.625 104.128 C 380.419 104.195,380.170 104.489,380.073 104.781 C 379.957 105.129,380.073 105.202,380.410 104.994 C 380.754 104.781,380.825 104.835,380.626 105.158 C 380.401 105.523,380.194 105.527,379.772 105.177 C 379.305 104.789,379.341 104.610,379.998 104.058 C 380.771 103.407,380.770 103.381,379.872 101.627 C 378.811 99.555,378.225 99.233,377.609 100.384 M210.600 136.664 C 185.062 140.660,166.246 154.728,157.420 176.424 C 155.486 181.180,154.434 186.079,153.389 195.200 C 151.113 215.057,146.727 226.177,135.890 239.563 C 117.813 261.891,81.690 279.685,37.200 288.177 C 34.230 288.744,29.370 289.674,26.400 290.244 C 21.212 291.240,17.600 292.634,17.600 293.640 C 17.600 293.864,17.808 293.919,18.062 293.762 C 18.352 293.583,18.415 293.652,18.231 293.949 C 17.799 294.648,25.798 308.816,30.230 315.200 C 35.002 322.076,43.511 333.021,47.177 337.000 C 52.545 342.827,64.132 353.978,68.506 357.526 C 73.038 361.202,74.231 362.125,80.400 366.730 C 88.763 372.972,109.199 384.793,110.660 384.232 C 111.031 384.090,111.138 384.176,110.955 384.473 C 110.757 384.793,110.901 384.847,111.422 384.647 C 111.837 384.488,112.040 384.493,111.875 384.659 C 111.142 385.391,123.065 390.200,123.932 389.523 C 124.519 389.063,124.539 389.079,124.094 389.649 C 123.383 390.559,125.649 391.589,126.610 390.792 C 127.118 390.370,127.177 390.395,126.966 390.943 C 126.641 391.792,127.121 391.779,128.169 390.911 C 128.626 390.531,128.775 390.477,128.500 390.791 C 127.452 391.984,129.784 393.381,131.100 392.349 C 131.720 391.863,131.743 391.873,131.303 392.438 C 130.747 393.150,133.558 394.321,134.470 393.757 C 134.741 393.589,134.814 393.655,134.650 393.920 C 134.477 394.199,135.010 394.524,136.088 394.798 C 137.030 395.037,138.790 395.571,140.000 395.985 C 143.186 397.075,144.810 397.284,145.557 396.701 C 146.139 396.247,146.143 396.273,145.600 396.969 C 145.042 397.685,145.063 397.722,145.901 397.507 C 146.396 397.379,146.703 397.433,146.584 397.626 C 146.297 398.090,148.219 398.559,148.839 398.176 C 149.147 397.985,149.220 398.044,149.038 398.338 C 148.466 399.265,151.119 398.851,151.777 397.911 C 152.120 397.422,152.400 397.231,152.400 397.487 C 152.400 397.743,152.220 398.064,152.000 398.200 C 151.267 398.653,151.586 399.001,153.194 399.503 C 155.208 400.131,155.726 400.131,155.347 399.500 C 155.113 399.110,155.175 399.104,155.629 399.471 C 156.025 399.791,158.581 399.954,163.596 399.981 C 170.224 400.016,170.899 399.959,170.190 399.423 C 169.755 399.094,169.580 398.819,169.800 398.810 C 170.020 398.802,169.660 398.437,169.000 398.000 C 167.580 397.060,164.191 396.915,162.989 397.744 C 162.555 398.043,161.840 398.214,161.400 398.124 C 160.960 398.034,160.240 397.921,159.800 397.873 C 159.311 397.820,159.042 397.535,159.107 397.139 C 159.215 396.485,158.556 396.073,156.891 395.755 C 155.741 395.535,154.400 396.236,154.400 397.057 C 154.400 397.438,154.175 397.599,153.827 397.466 C 153.440 397.317,153.299 397.475,153.392 397.956 C 153.467 398.347,153.308 398.667,153.040 398.667 C 152.771 398.667,152.562 398.292,152.575 397.833 C 152.592 397.277,152.367 397.018,151.900 397.056 C 151.515 397.086,151.200 396.861,151.200 396.556 C 151.200 396.250,150.908 396.000,150.551 396.000 C 150.012 396.000,149.988 395.896,150.414 395.383 C 151.470 394.110,148.486 393.119,147.318 394.355 C 146.623 395.091,146.543 395.093,144.801 394.406 C 143.514 393.899,143.221 393.655,143.772 393.548 C 144.494 393.409,144.500 393.357,143.871 392.728 C 143.136 391.993,140.940 392.327,140.362 393.261 C 140.027 393.804,138.000 392.694,138.000 391.967 C 138.000 391.739,137.775 391.688,137.500 391.853 C 137.136 392.072,137.144 391.976,137.528 391.501 C 138.001 390.918,137.882 390.852,136.398 390.872 C 135.326 390.887,134.659 391.103,134.514 391.481 C 134.330 391.960,134.228 391.969,133.959 391.534 C 133.778 391.240,133.488 390.984,133.315 390.965 C 132.021 390.823,131.578 390.305,132.288 389.765 C 132.939 389.272,132.902 389.224,131.857 389.213 C 130.959 389.203,130.768 389.341,130.966 389.857 C 131.177 390.406,131.118 390.430,130.609 390.008 C 130.274 389.730,130.000 389.636,130.000 389.800 C 130.000 389.964,129.695 389.851,129.323 389.549 C 128.908 389.212,128.758 389.187,128.936 389.483 C 129.131 389.808,128.861 389.776,128.113 389.388 C 127.450 389.044,126.946 388.970,126.867 389.205 C 126.793 389.422,126.568 389.600,126.367 389.600 C 125.745 389.600,126.156 388.627,127.000 388.101 C 127.708 387.661,127.638 387.628,126.400 387.823 C 125.630 387.943,124.940 388.213,124.867 388.421 C 124.793 388.630,124.558 388.800,124.343 388.800 C 124.128 388.800,124.051 388.640,124.172 388.445 C 124.473 387.958,123.334 387.070,122.818 387.389 C 122.588 387.531,122.400 387.457,122.400 387.224 C 122.400 386.991,122.121 386.800,121.780 386.800 C 121.439 386.800,120.584 386.493,119.880 386.117 C 119.176 385.741,118.465 385.403,118.300 385.367 C 118.135 385.330,117.888 385.278,117.751 385.250 C 117.614 385.222,117.713 384.946,117.970 384.636 C 118.291 384.250,118.306 383.989,118.019 383.812 C 117.789 383.669,117.600 383.754,117.600 384.000 C 117.600 384.246,117.401 384.324,117.157 384.174 C 116.860 383.990,116.802 384.175,116.980 384.737 C 117.198 385.424,116.998 385.345,115.856 384.287 C 114.896 383.398,114.587 382.857,114.854 382.535 C 115.115 382.221,114.998 381.830,114.496 381.335 C 112.813 379.676,110.194 371.899,108.994 365.000 C 101.667 322.877,111.798 292.068,141.444 266.310 C 160.116 250.087,168.195 245.762,209.600 229.815 C 242.087 217.303,253.597 206.630,257.216 185.660 C 262.321 156.086,247.311 137.009,218.600 136.578 C 214.860 136.522,211.260 136.561,210.600 136.664 M399.496 227.686 C 399.306 228.364,398.990 228.694,398.653 228.565 C 397.540 228.138,396.451 234.187,397.182 236.738 C 397.446 237.657,397.390 237.995,396.946 238.165 C 395.914 238.561,395.143 241.141,395.241 243.864 C 395.321 246.059,395.216 246.514,394.515 247.005 C 393.929 247.415,393.613 248.230,393.410 249.861 C 393.253 251.117,392.781 252.784,392.362 253.566 C 391.943 254.348,391.600 255.732,391.600 256.640 C 391.600 257.649,391.308 258.664,390.851 259.246 C 390.439 259.771,389.973 261.136,389.816 262.280 C 389.659 263.424,389.285 264.564,388.985 264.813 C 388.685 265.062,388.320 266.063,388.173 267.037 C 388.027 268.012,387.583 269.222,387.187 269.726 C 386.790 270.230,386.342 271.302,386.191 272.107 C 386.040 272.912,385.670 273.776,385.369 274.026 C 385.068 274.276,384.701 275.137,384.555 275.940 C 384.409 276.743,383.954 277.878,383.545 278.462 C 383.135 279.046,382.800 279.729,382.800 279.980 C 382.800 280.231,382.350 281.282,381.800 282.315 C 381.250 283.348,380.800 284.396,380.800 284.643 C 380.800 284.890,380.467 285.521,380.061 286.046 C 379.655 286.571,379.204 287.482,379.060 288.072 C 378.917 288.662,378.553 289.390,378.252 289.691 C 377.952 289.991,377.568 290.679,377.400 291.219 C 377.232 291.758,376.795 292.650,376.428 293.200 C 376.061 293.750,375.536 294.650,375.261 295.200 C 374.986 295.750,374.321 296.920,373.784 297.800 C 373.246 298.680,372.545 299.954,372.226 300.632 C 371.907 301.309,371.366 302.096,371.023 302.381 C 370.680 302.665,370.400 303.091,370.400 303.327 C 370.400 303.564,369.977 304.397,369.461 305.178 C 366.620 309.478,365.230 311.544,363.696 313.750 C 362.758 315.097,361.682 316.650,361.305 317.200 C 360.928 317.750,360.390 318.344,360.110 318.520 C 359.829 318.696,359.600 319.049,359.600 319.306 C 359.600 319.562,359.238 320.138,358.796 320.586 C 358.354 321.034,356.263 323.560,354.149 326.200 C 352.036 328.840,349.202 332.184,347.853 333.632 C 346.504 335.080,344.320 337.486,343.000 338.980 C 340.411 341.909,333.583 348.271,327.619 353.309 C 324.984 355.534,320.397 359.077,317.859 360.847 C 316.791 361.591,315.420 362.560,314.812 363.000 C 313.138 364.210,307.991 367.746,307.243 368.200 C 306.880 368.420,306.019 369.005,305.330 369.500 C 304.641 369.995,303.888 370.400,303.658 370.400 C 303.428 370.400,303.096 370.651,302.920 370.957 C 302.744 371.263,301.970 371.810,301.200 372.171 C 300.430 372.532,299.080 373.269,298.200 373.808 C 297.320 374.347,295.855 375.136,294.944 375.561 C 294.033 375.986,293.176 376.515,293.039 376.736 C 292.903 376.957,292.265 377.254,291.623 377.395 C 290.981 377.536,290.242 377.909,289.981 378.223 C 289.720 378.537,288.808 378.982,287.953 379.213 C 287.099 379.443,286.400 379.790,286.400 379.984 C 286.400 380.179,285.725 380.555,284.900 380.820 C 284.075 381.084,283.130 381.532,282.800 381.813 C 282.470 382.095,281.480 382.525,280.600 382.769 C 279.720 383.013,278.651 383.480,278.224 383.806 C 277.796 384.133,277.166 384.402,276.824 384.404 C 276.481 384.406,275.300 384.850,274.200 385.391 C 273.100 385.932,271.854 386.381,271.431 386.387 C 271.009 386.394,270.340 386.692,269.946 387.049 C 269.552 387.406,268.381 387.856,267.345 388.050 C 266.309 388.243,265.177 388.649,264.830 388.952 C 264.484 389.255,263.300 389.630,262.200 389.787 C 261.100 389.943,259.904 390.336,259.541 390.660 C 259.179 390.984,257.803 391.402,256.483 391.588 C 255.162 391.775,253.659 392.192,253.141 392.516 C 252.624 392.840,251.312 393.217,250.226 393.355 C 248.258 393.604,246.218 394.582,246.548 395.118 C 246.644 395.273,245.138 395.400,243.203 395.400 C 240.367 395.400,239.528 395.541,238.883 396.124 C 238.268 396.682,237.234 396.886,234.394 397.010 C 230.820 397.166,228.464 397.933,228.983 398.772 C 229.097 398.957,228.788 399.260,228.296 399.444 C 227.753 399.646,230.792 399.829,236.000 399.906 C 244.528 400.033,247.407 399.858,247.023 399.238 C 246.914 399.060,247.269 399.001,247.812 399.104 C 248.355 399.208,248.800 399.123,248.800 398.916 C 248.800 398.708,249.297 398.611,249.904 398.701 C 250.511 398.790,251.816 398.565,252.804 398.201 C 253.792 397.837,255.680 397.295,257.000 396.995 C 259.754 396.370,262.116 395.449,261.793 395.126 C 261.672 395.005,262.009 394.989,262.542 395.091 C 263.075 395.193,264.297 394.930,265.256 394.506 C 266.215 394.082,267.496 393.611,268.102 393.460 C 270.936 392.750,277.588 389.905,277.342 389.507 C 277.184 389.250,277.264 389.192,277.542 389.364 C 278.079 389.696,279.695 389.277,279.444 388.871 C 279.352 388.722,279.686 388.575,280.187 388.546 C 281.492 388.467,286.025 386.363,285.771 385.954 C 285.654 385.764,285.806 385.704,286.109 385.820 C 286.845 386.103,296.505 381.294,296.199 380.798 C 296.058 380.571,296.243 380.519,296.645 380.673 C 297.107 380.850,297.238 380.785,297.045 380.473 C 296.870 380.190,296.962 380.084,297.279 380.201 C 297.938 380.444,303.695 377.277,303.416 376.825 C 303.302 376.641,303.522 376.515,303.904 376.545 C 304.289 376.575,304.551 376.363,304.490 376.070 C 304.430 375.779,304.559 375.651,304.778 375.787 C 305.736 376.378,317.681 368.531,326.196 361.717 C 327.514 360.663,329.854 358.827,331.396 357.638 C 335.024 354.841,338.021 351.958,337.752 351.523 C 337.636 351.334,337.689 351.206,337.870 351.237 C 338.694 351.381,338.948 351.150,338.400 350.756 C 337.901 350.397,337.924 350.365,338.534 350.563 C 339.397 350.843,351.471 339.162,351.040 338.464 C 350.901 338.239,350.998 337.925,351.255 337.766 C 351.548 337.585,351.616 337.650,351.438 337.938 C 350.287 339.800,354.244 335.767,356.617 332.659 C 357.402 331.631,357.915 330.587,357.759 330.334 C 357.603 330.082,357.652 329.985,357.867 330.118 C 358.418 330.459,362.515 325.709,362.162 325.138 C 361.988 324.857,362.052 324.785,362.324 324.953 C 362.589 325.117,363.207 324.530,363.840 323.515 C 364.427 322.572,365.694 320.871,366.654 319.736 C 367.614 318.601,368.400 317.585,368.400 317.478 C 368.400 317.372,369.484 315.696,370.809 313.754 C 372.134 311.812,373.126 309.984,373.014 309.691 C 372.901 309.398,372.977 309.262,373.182 309.389 C 373.387 309.516,374.041 308.760,374.635 307.710 C 375.229 306.659,376.157 305.136,376.696 304.323 C 377.235 303.511,377.556 302.652,377.408 302.414 C 377.261 302.175,377.321 302.030,377.542 302.090 C 378.300 302.298,388.096 282.986,388.162 281.155 C 388.183 280.563,388.314 280.149,388.454 280.234 C 388.879 280.495,389.698 278.084,389.374 277.524 C 389.208 277.236,389.220 277.134,389.401 277.298 C 389.741 277.606,390.875 275.397,391.812 272.600 C 392.106 271.720,392.809 269.740,393.374 268.200 C 393.939 266.660,394.313 265.166,394.205 264.879 C 394.086 264.564,394.190 264.470,394.468 264.642 C 394.779 264.834,394.854 264.649,394.700 264.062 C 394.576 263.587,394.618 263.288,394.793 263.396 C 394.969 263.504,395.237 262.926,395.390 262.110 C 395.543 261.295,395.908 260.165,396.200 259.600 C 396.492 259.035,396.854 257.859,397.003 256.986 C 397.152 256.114,397.618 254.448,398.037 253.285 C 398.457 252.122,398.800 250.733,398.800 250.199 C 398.800 249.665,399.073 248.423,399.407 247.439 C 399.897 245.997,399.994 243.805,399.907 236.125 C 399.848 230.886,399.663 227.089,399.496 227.686 M174.600 399.378 C 173.487 399.895,173.704 399.935,177.600 399.933 C 180.586 399.932,181.466 399.831,180.646 399.586 C 178.352 398.899,175.819 398.812,174.600 399.378 M219.400 399.389 C 217.893 399.886,218.078 399.917,222.600 399.926 C 226.982 399.934,227.296 399.887,226.200 399.386 C 224.695 398.696,221.496 398.698,219.400 399.389 " stroke="none" fill="#fcfbfa" fill-rule="evenodd"></path><path id="path1" d="M151.800 0.683 C 149.407 1.253,148.118 1.614,139.808 4.045 C 135.080 5.428,126.843 8.365,122.000 10.394 C 120.350 11.085,118.334 11.898,117.520 12.201 C 114.638 13.271,102.114 19.636,97.845 22.200 C 95.465 23.630,93.440 24.800,93.346 24.800 C 92.725 24.800,76.117 36.304,73.225 38.737 C 72.221 39.582,69.802 41.553,67.849 43.119 C 58.736 50.422,41.543 68.684,35.973 76.976 C 35.188 78.144,33.942 79.863,33.204 80.795 C 32.466 81.726,31.128 83.581,30.231 84.915 C 29.334 86.249,28.468 87.534,28.307 87.770 C 26.287 90.738,17.600 105.704,17.600 106.218 C 17.600 106.303,16.518 108.564,15.194 111.244 C 13.871 113.923,12.149 117.755,11.366 119.758 C 10.584 121.761,9.758 123.741,9.532 124.158 C 9.306 124.575,8.770 125.925,8.340 127.158 C 7.911 128.391,7.106 130.660,6.551 132.200 C 5.996 133.740,5.187 136.242,4.753 137.761 C 4.318 139.279,3.807 140.813,3.616 141.170 C 3.425 141.526,3.086 142.714,2.862 143.809 C 2.638 144.904,2.195 146.610,1.878 147.600 C -0.061 153.660,-0.002 152.028,0.005 199.480 C 0.009 228.287,0.150 244.045,0.405 244.203 C 0.622 244.337,0.800 244.627,0.800 244.847 C 0.800 245.067,0.592 245.118,0.337 244.961 C 0.010 244.759,-0.045 244.958,0.150 245.637 C 0.302 246.167,0.775 248.184,1.202 250.120 C 1.629 252.057,2.118 253.857,2.289 254.120 C 2.460 254.384,2.810 255.590,3.066 256.800 C 3.322 258.010,3.835 259.900,4.206 261.000 C 9.273 276.034,14.190 288.036,14.985 287.313 C 15.174 287.141,15.202 287.220,15.047 287.489 C 14.670 288.146,16.804 292.640,17.194 292.010 C 17.407 291.666,17.556 291.709,17.732 292.166 C 17.865 292.515,17.801 292.800,17.587 292.800 C 17.374 292.800,17.200 292.973,17.200 293.183 C 17.200 293.394,18.055 293.049,19.100 292.416 C 20.505 291.565,22.406 290.998,26.400 290.236 C 29.370 289.670,34.230 288.744,37.200 288.177 C 81.690 279.685,117.813 261.891,135.890 239.563 C 146.727 226.177,151.113 215.057,153.389 195.200 C 154.755 183.279,155.998 178.751,160.193 170.424 C 178.933 133.223,238.358 123.987,254.289 155.800 C 258.858 164.925,259.298 181.793,255.274 193.600 C 249.804 209.651,238.327 218.751,209.600 229.815 C 176.873 242.419,169.603 245.708,159.699 252.386 C 127.437 274.140,110.505 298.380,107.174 327.580 C 106.556 332.994,106.920 351.403,107.760 357.200 C 109.622 370.061,112.113 378.985,114.496 381.335 C 114.998 381.830,115.115 382.221,114.854 382.535 C 114.587 382.857,114.896 383.398,115.856 384.287 C 116.998 385.345,117.198 385.424,116.980 384.737 C 116.802 384.175,116.860 383.990,117.157 384.174 C 117.401 384.324,117.600 384.246,117.600 384.000 C 117.600 383.754,117.789 383.669,118.019 383.812 C 118.306 383.989,118.291 384.250,117.970 384.636 C 117.713 384.946,117.614 385.223,117.751 385.250 C 117.888 385.278,118.135 385.330,118.300 385.367 C 118.465 385.403,119.176 385.741,119.880 386.117 C 120.584 386.493,121.439 386.800,121.780 386.800 C 122.121 386.800,122.400 386.991,122.400 387.224 C 122.400 387.457,122.588 387.531,122.818 387.389 C 123.334 387.070,124.473 387.958,124.172 388.445 C 124.051 388.640,124.128 388.800,124.343 388.800 C 124.558 388.800,124.793 388.630,124.867 388.421 C 124.940 388.213,125.630 387.943,126.400 387.823 C 127.638 387.628,127.708 387.661,127.000 388.101 C 126.156 388.627,125.745 389.600,126.367 389.600 C 126.568 389.600,126.793 389.422,126.867 389.205 C 126.946 388.970,127.450 389.044,128.113 389.388 C 128.861 389.776,129.131 389.808,128.936 389.483 C 128.758 389.187,128.908 389.212,129.323 389.549 C 129.695 389.851,130.000 389.964,130.000 389.800 C 130.000 389.636,130.274 389.730,130.609 390.008 C 131.118 390.430,131.177 390.406,130.966 389.857 C 130.768 389.341,130.959 389.203,131.857 389.213 C 132.902 389.224,132.939 389.272,132.288 389.765 C 131.578 390.305,132.021 390.823,133.315 390.965 C 133.488 390.984,133.778 391.240,133.959 391.534 C 134.228 391.969,134.330 391.960,134.514 391.481 C 134.659 391.103,135.326 390.887,136.398 390.872 C 137.882 390.852,138.001 390.918,137.528 391.501 C 137.144 391.976,137.136 392.072,137.500 391.853 C 137.775 391.688,138.000 391.739,138.000 391.967 C 138.000 392.694,140.027 393.804,140.362 393.261 C 140.940 392.327,143.136 391.993,143.871 392.728 C 144.500 393.357,144.494 393.409,143.772 393.548 C 143.221 393.655,143.514 393.899,144.801 394.406 C 146.543 395.093,146.623 395.091,147.318 394.355 C 148.486 393.119,151.470 394.110,150.414 395.383 C 149.988 395.896,150.012 396.000,150.551 396.000 C 150.908 396.000,151.200 396.250,151.200 396.556 C 151.200 396.861,151.515 397.086,151.900 397.056 C 152.367 397.018,152.592 397.277,152.575 397.833 C 152.562 398.292,152.771 398.667,153.040 398.667 C 153.308 398.667,153.467 398.347,153.392 397.956 C 153.299 397.475,153.440 397.317,153.827 397.466 C 154.175 397.599,154.400 397.438,154.400 397.057 C 154.400 396.236,155.741 395.535,156.891 395.755 C 158.556 396.073,159.215 396.485,159.107 397.139 C 159.042 397.535,159.311 397.820,159.800 397.873 C 160.240 397.921,160.960 398.034,161.400 398.124 C 161.840 398.214,162.555 398.043,162.989 397.744 C 164.191 396.915,167.580 397.060,169.000 398.000 C 169.660 398.437,170.029 398.796,169.820 398.797 C 169.609 398.799,169.629 398.989,169.866 399.226 C 170.628 399.988,172.821 400.078,174.476 399.416 C 176.099 398.767,177.831 398.822,180.800 399.620 C 183.292 400.289,217.066 400.093,219.364 399.396 C 221.789 398.660,224.415 398.633,226.113 399.325 C 227.356 399.832,229.603 399.336,228.963 398.696 C 228.264 397.997,230.961 397.160,234.394 397.010 C 237.234 396.886,238.268 396.682,238.883 396.124 C 239.528 395.541,240.367 395.400,243.203 395.400 C 245.138 395.400,246.644 395.273,246.548 395.118 C 246.218 394.582,248.258 393.604,250.226 393.355 C 251.312 393.217,252.624 392.840,253.141 392.516 C 253.659 392.192,255.162 391.775,256.483 391.588 C 257.803 391.402,259.179 390.984,259.541 390.660 C 259.904 390.336,261.100 389.943,262.200 389.787 C 263.300 389.630,264.484 389.255,264.830 388.952 C 265.177 388.649,266.309 388.243,267.345 388.050 C 268.381 387.856,269.552 387.406,269.946 387.049 C 270.340 386.692,271.009 386.394,271.431 386.387 C 271.854 386.381,273.100 385.932,274.200 385.391 C 275.300 384.850,276.481 384.406,276.824 384.404 C 277.166 384.402,277.796 384.133,278.224 383.806 C 278.651 383.480,279.720 383.013,280.600 382.769 C 281.480 382.525,282.470 382.095,282.800 381.813 C 283.130 381.532,284.075 381.084,284.900 380.820 C 285.725 380.555,286.400 380.179,286.400 379.984 C 286.400 379.790,287.099 379.443,287.953 379.213 C 288.808 378.982,289.720 378.537,289.981 378.223 C 290.242 377.909,290.981 377.536,291.623 377.395 C 292.265 377.254,292.903 376.957,293.039 376.736 C 293.176 376.515,294.033 375.986,294.944 375.561 C 295.855 375.136,297.320 374.347,298.200 373.808 C 299.080 373.269,300.430 372.532,301.200 372.171 C 301.970 371.810,302.744 371.263,302.920 370.957 C 303.096 370.651,303.428 370.400,303.658 370.400 C 303.888 370.400,304.641 369.995,305.330 369.500 C 306.019 369.005,306.880 368.420,307.243 368.200 C 307.991 367.746,313.138 364.210,314.812 363.000 C 315.420 362.560,316.791 361.591,317.859 360.847 C 320.397 359.077,324.984 355.534,327.619 353.309 C 333.583 348.271,340.411 341.909,343.000 338.980 C 344.320 337.486,346.504 335.080,347.853 333.632 C 349.202 332.184,352.036 328.840,354.149 326.200 C 356.263 323.560,358.354 321.034,358.796 320.586 C 359.238 320.138,359.600 319.562,359.600 319.306 C 359.600 319.049,359.829 318.696,360.110 318.520 C 360.390 318.344,360.928 317.750,361.305 317.200 C 361.682 316.650,362.758 315.097,363.696 313.750 C 365.230 311.544,366.620 309.478,369.461 305.178 C 369.977 304.397,370.400 303.564,370.400 303.327 C 370.400 303.091,370.680 302.665,371.023 302.381 C 371.366 302.096,371.907 301.309,372.226 300.632 C 372.545 299.954,373.246 298.680,373.784 297.800 C 374.321 296.920,374.986 295.750,375.261 295.200 C 375.536 294.650,376.061 293.750,376.428 293.200 C 376.795 292.650,377.232 291.758,377.400 291.219 C 377.568 290.679,377.952 289.991,378.252 289.691 C 378.553 289.390,378.917 288.662,379.060 288.072 C 379.204 287.482,379.655 286.571,380.061 286.046 C 380.467 285.521,380.800 284.890,380.800 284.643 C 380.800 284.396,381.250 283.348,381.800 282.315 C 382.350 281.282,382.800 280.231,382.800 279.980 C 382.800 279.729,383.135 279.046,383.545 278.462 C 383.954 277.878,384.409 276.743,384.555 275.940 C 384.701 275.137,385.068 274.276,385.369 274.026 C 385.670 273.776,386.040 272.912,386.191 272.107 C 386.342 271.302,386.790 270.230,387.187 269.726 C 387.583 269.222,388.027 268.012,388.173 267.037 C 388.320 266.063,388.685 265.062,388.985 264.813 C 389.285 264.564,389.659 263.424,389.816 262.280 C 389.973 261.136,390.439 259.771,390.851 259.246 C 391.308 258.664,391.600 257.649,391.600 256.640 C 391.600 255.732,391.943 254.348,392.362 253.566 C 392.781 252.784,393.253 251.117,393.410 249.861 C 393.613 248.230,393.929 247.415,394.515 247.005 C 395.216 246.514,395.321 246.059,395.241 243.864 C 395.143 241.141,395.914 238.561,396.946 238.165 C 397.390 237.995,397.446 237.657,397.182 236.738 C 396.463 234.230,397.538 228.137,398.627 228.555 C 399.876 229.034,400.000 226.316,400.000 198.518 L 400.000 170.755 398.727 169.592 C 397.129 168.133,396.579 164.149,397.790 162.811 C 398.524 162.000,398.024 159.200,397.145 159.200 C 396.929 159.200,396.867 159.425,397.007 159.700 C 397.147 159.975,396.887 159.775,396.430 159.256 C 395.283 157.951,395.268 155.006,396.405 154.397 C 397.044 154.056,397.126 153.810,396.805 153.210 C 396.582 152.793,396.400 152.070,396.400 151.603 C 396.400 151.135,396.265 150.831,396.100 150.926 C 394.713 151.729,393.385 149.289,394.255 147.536 C 394.898 146.241,394.257 143.816,393.363 144.159 C 393.065 144.273,392.661 144.081,392.466 143.732 C 392.025 142.944,392.719 140.002,393.349 139.994 C 393.597 139.991,393.530 139.817,393.200 139.608 C 392.870 139.400,392.600 139.000,392.600 138.720 C 392.600 138.440,392.240 138.143,391.800 138.059 C 391.360 137.976,390.897 137.744,390.771 137.544 C 390.421 136.991,390.840 134.777,391.246 135.028 C 391.442 135.150,391.544 134.863,391.472 134.391 C 391.400 133.920,391.114 133.394,390.836 133.222 C 390.559 133.051,390.347 132.796,390.366 132.655 C 390.523 131.481,390.305 131.110,389.962 131.968 C 389.672 132.695,389.462 132.822,389.117 132.477 C 388.773 132.133,388.820 131.841,389.308 131.302 C 389.664 130.908,389.899 130.229,389.830 129.793 C 389.760 129.357,389.885 128.771,390.108 128.491 C 390.416 128.104,390.340 128.048,389.791 128.259 C 389.294 128.450,389.159 128.390,389.358 128.068 C 389.538 127.777,389.373 127.598,388.924 127.594 C 388.310 127.589,388.291 127.529,388.800 127.200 C 389.263 126.901,389.276 126.811,388.857 126.806 C 388.540 126.803,388.410 126.551,388.545 126.200 C 388.671 125.870,388.601 125.600,388.387 125.600 C 388.030 125.600,387.838 126.174,387.953 126.900 C 387.979 127.065,387.831 127.200,387.625 127.200 C 387.419 127.200,387.277 126.840,387.310 126.400 C 387.343 125.960,387.510 125.600,387.681 125.600 C 387.851 125.600,387.954 125.150,387.908 124.600 C 387.863 124.050,387.685 123.600,387.513 123.600 C 387.341 123.600,387.200 123.270,387.200 122.867 C 387.200 122.463,387.065 121.998,386.900 121.833 C 386.735 121.668,386.594 121.233,386.586 120.867 C 386.578 120.500,386.338 119.780,386.053 119.266 C 385.768 118.752,385.621 118.246,385.726 118.141 C 385.830 118.036,385.488 117.489,384.966 116.925 C 384.443 116.361,384.112 115.742,384.231 115.550 C 384.350 115.357,384.227 115.200,383.957 115.200 C 383.687 115.200,383.579 115.087,383.717 114.949 C 383.855 114.811,383.698 114.176,383.368 113.538 C 383.037 112.899,382.892 112.174,383.045 111.926 C 383.209 111.662,383.145 111.587,382.889 111.745 C 382.651 111.892,382.342 111.830,382.204 111.607 C 382.066 111.383,382.140 111.200,382.368 111.200 C 382.644 111.200,382.630 110.865,382.327 110.200 C 382.077 109.650,381.710 109.200,381.512 109.200 C 381.315 109.200,381.255 109.035,381.380 108.832 C 381.505 108.630,381.320 108.177,380.968 107.826 C 380.174 107.031,378.325 103.600,378.691 103.600 C 378.839 103.600,378.758 103.398,378.511 103.151 C 378.264 102.904,378.169 102.425,378.299 102.086 C 378.448 101.698,378.372 101.570,378.096 101.741 C 377.853 101.891,377.545 101.834,377.409 101.615 C 377.097 101.109,377.886 99.600,378.463 99.600 C 378.733 99.600,378.689 99.866,378.349 100.300 C 377.853 100.932,377.867 100.948,378.489 100.460 C 379.140 99.950,378.554 97.600,377.776 97.600 C 377.664 97.600,377.755 97.942,377.978 98.359 C 378.311 98.981,378.187 99.244,377.292 99.817 C 376.691 100.201,376.333 100.371,376.497 100.194 C 376.660 100.018,376.614 99.657,376.394 99.393 C 376.119 99.061,376.245 98.597,376.805 97.885 C 377.316 97.235,377.460 96.761,377.197 96.598 C 376.968 96.456,376.830 96.554,376.890 96.816 C 376.951 97.077,376.550 97.361,376.000 97.446 C 375.232 97.566,375.139 97.511,375.600 97.207 C 376.149 96.846,375.882 96.622,375.070 96.763 C 374.889 96.794,374.850 96.643,374.983 96.427 C 375.116 96.212,375.472 96.129,375.772 96.245 C 376.677 96.592,376.740 95.873,375.916 94.600 C 375.384 93.777,375.215 93.665,375.379 94.244 C 375.525 94.759,375.381 95.284,375.009 95.593 C 374.495 96.019,374.400 95.961,374.400 95.225 C 374.400 94.640,374.235 94.448,373.900 94.641 C 373.625 94.799,373.802 94.487,374.293 93.947 L 375.185 92.964 374.137 91.382 C 372.794 89.357,372.304 88.825,372.471 89.576 C 372.542 89.893,372.280 90.222,371.890 90.308 C 371.456 90.402,371.222 90.256,371.290 89.931 C 371.350 89.639,371.145 89.455,370.832 89.523 C 370.356 89.625,370.350 89.542,370.796 89.004 C 371.089 88.652,371.578 88.460,371.884 88.577 C 372.541 88.829,371.365 86.639,370.430 85.869 C 370.024 85.534,370.047 85.688,370.513 86.404 C 371.187 87.440,371.020 88.109,370.032 88.323 C 369.542 88.428,369.542 88.350,370.032 87.748 C 370.534 87.132,370.521 87.080,369.929 87.301 C 369.550 87.443,369.043 87.292,368.762 86.954 C 368.363 86.474,368.367 86.379,368.782 86.477 C 369.067 86.545,369.378 86.389,369.473 86.131 C 369.584 85.831,369.351 85.740,368.823 85.878 C 368.337 86.005,368.000 85.901,368.000 85.623 C 368.000 85.353,368.213 85.281,368.500 85.453 C 368.844 85.660,368.830 85.544,368.455 85.081 C 368.155 84.711,367.705 84.523,367.455 84.663 C 367.188 84.812,367.207 84.695,367.500 84.379 C 368.183 83.643,368.127 83.278,367.343 83.344 C 366.357 83.428,366.186 82.381,367.145 82.130 C 367.979 81.912,366.777 79.974,363.669 76.526 C 363.236 76.045,362.957 75.576,363.050 75.483 C 363.143 75.390,362.900 75.072,362.510 74.776 C 361.945 74.348,361.896 74.347,362.269 74.768 C 362.946 75.533,362.487 76.570,361.744 75.954 C 361.287 75.574,361.227 75.629,361.421 76.243 C 361.648 76.960,361.636 76.962,361.197 76.276 C 360.942 75.877,360.865 75.247,361.027 74.876 C 361.575 73.615,361.502 73.395,359.936 71.597 C 359.075 70.609,358.480 70.097,358.613 70.460 C 358.746 70.822,358.668 71.235,358.439 71.376 C 358.210 71.518,357.909 71.177,357.768 70.616 C 357.628 70.057,357.349 69.600,357.148 69.600 C 356.947 69.600,356.584 69.164,356.342 68.632 C 356.074 68.045,355.677 67.749,355.334 67.881 C 355.022 68.000,354.796 67.941,354.831 67.749 C 354.979 66.938,354.761 66.642,354.416 67.187 C 354.152 67.604,354.067 67.362,354.122 66.352 L 354.200 64.929 355.740 66.565 C 357.233 68.150,357.227 68.133,355.547 66.000 C 351.409 60.743,334.400 44.354,334.400 45.624 C 334.400 45.857,334.568 45.944,334.772 45.817 C 334.977 45.691,335.236 45.734,335.347 45.913 C 335.458 46.093,335.122 46.240,334.600 46.240 C 334.078 46.240,333.733 46.109,333.832 45.949 C 333.931 45.789,333.658 45.545,333.226 45.408 C 332.743 45.255,332.528 44.932,332.667 44.569 C 332.841 44.116,333.021 44.086,333.447 44.439 C 333.751 44.691,334.000 44.811,334.000 44.705 C 334.000 44.433,324.452 36.704,323.000 35.801 C 322.340 35.390,321.350 34.654,320.800 34.165 C 312.517 26.800,268.657 3.962,271.438 8.462 C 271.616 8.750,271.548 8.815,271.255 8.634 C 270.998 8.475,270.878 8.198,270.988 8.019 C 271.231 7.626,270.584 7.366,263.400 4.972 C 260.320 3.946,257.054 3.083,256.141 3.053 C 255.229 3.024,254.558 2.876,254.651 2.723 C 254.822 2.441,252.196 1.608,248.600 0.804 C 247.500 0.558,246.168 0.251,245.641 0.121 C 244.978 -0.043,244.769 0.026,244.964 0.342 C 245.120 0.594,245.067 0.800,244.847 0.800 C 244.627 0.800,244.338 0.622,244.203 0.406 C 243.776 -0.286,154.745 -0.019,151.800 0.683 M287.620 15.010 C 288.269 15.346,288.800 15.711,288.800 15.821 C 288.800 16.000,286.445 14.917,286.033 14.549 C 285.629 14.187,286.541 14.452,287.620 15.010 M296.347 19.353 C 297.215 19.835,297.233 19.902,296.559 20.160 C 296.155 20.315,295.960 20.307,296.125 20.142 C 296.290 19.977,296.014 19.614,295.513 19.335 C 295.011 19.056,294.780 18.828,295.000 18.828 C 295.220 18.828,295.826 19.065,296.347 19.353 M306.967 25.443 C 307.761 25.747,307.793 26.267,307.018 26.267 C 306.697 26.267,306.518 26.132,306.620 25.967 C 306.722 25.803,306.579 25.577,306.302 25.466 C 306.026 25.354,305.920 25.249,306.067 25.232 C 306.214 25.214,306.619 25.309,306.967 25.443 M313.140 29.625 C 313.295 30.093,313.218 30.108,312.728 29.703 C 312.397 29.430,311.979 29.340,311.799 29.503 C 311.619 29.667,311.607 29.565,311.773 29.279 C 312.137 28.648,312.879 28.836,313.140 29.625 M318.000 32.846 C 318.000 33.041,317.820 33.200,317.600 33.200 C 317.380 33.200,317.200 33.020,317.200 32.800 C 317.200 32.580,316.930 32.400,316.600 32.400 C 316.270 32.400,316.000 32.126,316.000 31.791 C 316.000 31.257,316.125 31.263,317.000 31.837 C 317.550 32.197,318.000 32.651,318.000 32.846 M319.421 34.290 C 319.239 34.461,319.010 34.374,318.911 34.098 C 318.812 33.821,318.569 33.695,318.370 33.818 C 318.172 33.941,318.122 33.748,318.259 33.390 C 318.485 32.800,318.569 32.797,319.131 33.359 C 319.473 33.701,319.603 34.120,319.421 34.290 M325.100 37.729 C 326.281 38.793,326.247 39.295,325.032 38.742 C 324.457 38.480,324.150 38.075,324.276 37.746 C 324.422 37.365,324.287 37.268,323.845 37.438 C 323.411 37.605,323.200 37.468,323.200 37.019 C 323.200 36.276,323.688 36.458,325.100 37.729 M328.400 40.932 C 328.400 41.147,328.070 41.026,327.668 40.661 C 327.265 40.297,326.833 40.101,326.708 40.226 C 326.582 40.351,326.344 40.233,326.178 39.965 C 325.972 39.630,326.043 39.580,326.406 39.804 C 326.804 40.049,326.863 39.942,326.646 39.375 C 326.405 38.749,326.531 38.784,327.378 39.579 C 327.940 40.107,328.400 40.716,328.400 40.932 M331.821 43.890 C 331.639 44.061,331.410 43.974,331.311 43.698 C 331.212 43.421,330.969 43.295,330.770 43.418 C 330.572 43.541,330.522 43.348,330.659 42.990 C 330.885 42.400,330.969 42.397,331.531 42.959 C 331.873 43.301,332.003 43.720,331.821 43.890 M339.233 50.076 C 339.477 50.522,339.445 50.848,339.139 51.038 C 338.860 51.210,338.784 51.149,338.949 50.882 C 339.259 50.381,337.777 49.443,337.219 49.788 C 337.019 49.912,336.725 49.802,336.566 49.545 C 336.385 49.252,336.450 49.184,336.738 49.362 C 336.992 49.519,337.200 49.530,337.200 49.387 C 337.200 48.978,335.682 47.153,335.393 47.213 C 335.250 47.242,335.013 47.133,334.867 46.969 C 334.720 46.806,334.825 46.801,335.100 46.959 C 335.388 47.125,335.600 47.033,335.600 46.742 C 335.600 46.194,338.631 48.975,339.233 50.076 M351.626 62.289 C 352.967 63.548,353.869 64.644,353.630 64.723 C 353.391 64.803,353.312 65.078,353.456 65.334 C 353.599 65.590,353.008 65.080,352.143 64.200 C 351.277 63.320,350.576 62.420,350.585 62.200 C 350.593 61.980,350.330 61.860,350.000 61.933 C 349.670 62.007,349.535 61.931,349.701 61.766 C 349.866 61.600,349.703 61.135,349.339 60.732 C 347.926 59.171,349.305 60.110,351.626 62.289 M360.400 72.600 C 360.918 73.152,361.118 73.600,360.846 73.600 C 360.575 73.600,360.463 73.778,360.597 73.995 C 360.735 74.219,360.582 74.291,360.246 74.162 C 359.918 74.037,359.748 73.679,359.868 73.367 C 359.988 73.055,359.906 72.800,359.686 72.800 C 359.466 72.800,359.182 72.530,359.055 72.200 C 358.706 71.290,359.349 71.481,360.400 72.600 M299.528 77.180 C 322.025 81.822,330.798 108.012,315.261 124.148 C 299.220 140.807,270.120 132.245,265.824 109.603 C 262.118 90.067,279.756 73.100,299.528 77.180 M364.360 77.823 C 365.359 79.515,365.371 79.600,364.613 79.600 C 364.229 79.600,364.114 79.369,364.281 78.934 C 364.452 78.487,364.383 78.364,364.068 78.558 C 363.787 78.732,363.600 78.598,363.600 78.224 C 363.600 77.662,363.133 77.421,362.300 77.553 C 361.797 77.632,361.966 76.880,362.500 76.665 C 363.390 76.306,363.509 76.380,364.360 77.823 M366.950 81.681 C 366.854 81.837,366.481 81.852,366.122 81.715 C 365.650 81.534,365.560 81.611,365.796 81.994 C 366.022 82.360,365.970 82.429,365.627 82.217 C 365.354 82.048,365.219 81.570,365.328 81.155 C 365.437 80.738,365.318 80.397,365.063 80.394 C 364.786 80.390,364.828 80.244,365.165 80.030 C 365.750 79.659,367.309 81.100,366.950 81.681 M373.351 90.720 C 373.459 90.896,373.200 91.257,372.774 91.523 C 372.153 91.911,372.000 91.901,372.000 91.470 C 372.000 90.539,372.922 90.027,373.351 90.720 M374.372 92.347 C 374.831 93.205,374.574 93.600,373.557 93.600 C 372.595 93.600,372.225 92.893,372.815 92.182 C 373.461 91.403,373.891 91.449,374.372 92.347 M379.896 104.160 C 379.293 104.617,379.274 104.763,379.760 105.167 C 380.198 105.530,380.397 105.528,380.626 105.158 C 380.815 104.853,380.755 104.781,380.462 104.962 C 380.208 105.119,380.000 105.066,380.000 104.843 C 380.000 104.621,380.315 104.256,380.700 104.032 C 381.085 103.808,381.220 103.625,381.000 103.625 C 380.780 103.625,380.283 103.866,379.896 104.160 M381.567 105.139 C 381.841 105.651,381.815 106.043,381.481 106.419 C 381.079 106.873,381.113 106.876,381.692 106.439 C 382.323 105.962,382.078 104.400,381.372 104.400 C 381.262 104.400,381.350 104.732,381.567 105.139 M384.162 112.062 C 383.976 112.362,384.053 112.414,384.383 112.211 C 385.114 111.759,385.658 112.839,385.077 113.587 C 384.661 114.122,384.688 114.131,385.292 113.658 C 385.821 113.243,385.888 112.938,385.578 112.358 C 385.117 111.497,384.580 111.385,384.162 112.062 M390.830 126.564 C 390.504 126.957,390.491 127.209,390.787 127.392 C 391.021 127.537,391.111 127.821,390.986 128.023 C 390.861 128.225,391.038 128.284,391.379 128.153 C 391.999 127.915,392.268 127.158,391.700 127.247 C 390.917 127.371,390.745 127.148,391.200 126.600 C 391.474 126.270,391.608 126.000,391.498 126.000 C 391.388 126.000,391.087 126.254,390.830 126.564 M392.105 133.787 C 391.977 134.014,392.021 134.065,392.203 133.899 C 392.386 133.734,392.907 133.914,393.361 134.299 C 394.046 134.881,394.100 134.888,393.676 134.339 C 393.263 133.802,393.264 133.640,393.683 133.480 C 393.967 133.371,393.781 133.303,393.270 133.328 C 392.758 133.354,392.234 133.560,392.105 133.787 M398.349 151.077 C 398.042 151.455,398.007 151.629,398.270 151.472 C 398.544 151.308,398.816 151.484,398.923 151.895 C 399.038 152.335,399.125 152.186,399.154 151.500 C 399.208 150.218,399.094 150.158,398.349 151.077 M151.314 398.280 C 150.824 398.790,150.647 399.200,150.918 399.200 C 151.365 399.200,152.624 397.629,152.328 397.441 C 152.257 397.396,151.801 397.774,151.314 398.280 " stroke="none" fill="#f4bc13" fill-rule="evenodd"></path></g></svg>